<svg xmlns="http://www.w3.org/2000/svg" width="520" height="300" viewBox="0 0 520 300">
  <!-- Static preview image of the Example Theme (dark variant). SVG keeps the
       example pack free of binary files; a real theme can ship a PNG/WebP
       screenshot instead. -->
  <rect width="520" height="300" fill="#14100b"/>
  <rect x="0" y="0" width="120" height="300" fill="#181310"/>
  <rect x="14" y="18" width="92" height="14" rx="7" fill="#d97706"/>
  <rect x="14" y="52" width="92" height="9" rx="4.5" fill="#2e261d"/>
  <rect x="14" y="70" width="92" height="9" rx="4.5" fill="#2e261d"/>
  <rect x="14" y="88" width="92" height="9" rx="4.5" fill="#d97706" fill-opacity="0.35"/>
  <rect x="14" y="106" width="92" height="9" rx="4.5" fill="#2e261d"/>
  <rect x="140" y="24" width="200" height="18" rx="5" fill="#f5efe6"/>
  <rect x="140" y="52" width="130" height="10" rx="5" fill="#b3a794"/>
  <rect x="140" y="84" width="360" height="88" rx="12" fill="#201a13" stroke="#3a3226" stroke-width="1"/>
  <circle cx="166" cy="112" r="9" fill="#d97706"/>
  <path d="M162 112 l3 3 l6 -7" stroke="#fff" stroke-width="2" fill="none" stroke-linecap="round"/>
  <rect x="186" y="104" width="150" height="9" rx="4.5" fill="#f5efe6"/>
  <rect x="186" y="122" width="220" height="8" rx="4" fill="#6e6353"/>
  <rect x="156" y="142" width="200" height="16" rx="4" fill="#262019"/>
  <rect x="156" y="156" width="200" height="2" fill="#d97706"/>
  <rect x="140" y="192" width="360" height="84" rx="12" fill="#201a13" stroke="#3a3226" stroke-width="1"/>
  <g fill="#2e261d">
    <rect x="156" y="208" width="42" height="24" rx="6"/>
    <rect x="204" y="208" width="42" height="24" rx="6"/>
    <rect x="252" y="208" width="42" height="24" rx="6"/>
    <rect x="348" y="208" width="42" height="24" rx="6"/>
    <rect x="396" y="208" width="42" height="24" rx="6"/>
    <rect x="156" y="240" width="42" height="24" rx="6"/>
    <rect x="204" y="240" width="42" height="24" rx="6"/>
  </g>
  <rect x="300" y="208" width="42" height="24" rx="6" fill="#d97706" fill-opacity="0.25" stroke="#d97706" stroke-width="2"/>
  <rect x="404" y="30" width="96" height="26" rx="13" fill="#d97706"/>
  <rect x="424" y="39" width="56" height="8" rx="4" fill="#fff" fill-opacity="0.9"/>
</svg>
